<svg width="40" height="40" fill="none" xmlns="http://www.w3.org/2000/svg"><g clip-path="url(#a)"><mask id="b" style="mask-type:alpha" maskUnits="userSpaceOnUse" x="0" y="0" width="40" height="40"><path d="M0 18C0 10.5 0 6.75 1.91 4.122A10 10 0 0 1 4.122 1.91C6.751 0 10.501 0 18 0h4c7.5 0 11.25 0 13.878 1.91a10.001 10.001 0 0 1 2.212 2.212C40 6.751 40 10.501 40 18v4c0 7.5 0 11.25-1.91 13.878a10.003 10.003 0 0 1-2.212 2.212C33.249 40 29.5 40 22 40h-4c-7.5 0-11.25 0-13.878-1.91a10.001 10.001 0 0 1-2.212-2.212C0 33.249 0 29.5 0 22v-4z" fill="#D9D9D9"/></mask><g mask="url(#b)"><path fill-rule="evenodd" clip-rule="evenodd" d="M26.667 21.73s-.607-1.588-1.75-3.589c-.458 1.326-1.973 5.433-4.878 8.015-2.686-2.129-4.521-6.273-5.111-7.832-.907 1.629-1.41 2.92-1.537 3.305l-.058.187s2.403 8.237 6.71 11.517c4.175-3.569 6.624-11.603 6.624-11.603zm-1.536-5.405s-1.87 5.41-5.12 8.185c-3.348-2.552-5.252-8.118-5.252-8.118s.88-2.333 2.204-4.283l-.005.03s1.103 3.428 3.047 4.998c1.873-1.699 2.806-4.513 2.94-4.94a23.316 23.316 0 0 1 2.186 4.128zM22.98 10.99S21.934 8.13 20.01 6.667c-1.864 1.593-2.967 4.276-2.967 4.276-.01.054 1.078 3.279 3 4.741 1.864-1.592 2.936-4.695 2.936-4.695z" fill="#EB6129"/></g></g><defs><clipPath id="a"><path fill="#fff" d="M0 0h40v40H0z"/></clipPath></defs></svg>