<svg xmlns="http://www.w3.org/2000/svg" width="54" height="54" viewBox="0 0 54 54">
    <g transform="translate(-30.48 -20.4)scale(.10642)">
        <circle cx="540.11" cy="262.59" r="52.13" fill="#ff2038"/>
        <path d="M696.54 463.23v124.54c0 21.79-12.25 41.21-28.91 53.76-17.87 13.46-29.61 20.08-59.03 29.13-9.31 2.86-18.25-3.87-18.25-13.12v-159.2c0-11.02 8.64-17.02 15.6-18.2 31.2-5.27 55.02-12.29 77.8-24.86 6.26-2.84 12.8 1.17 12.8 7.94Zm-38.05 35.22c0-5.57-4.86-8.61-10.85-6.79s-10.85 7.81-10.85 13.38v116.98c0 5.57 4.86 8.61 10.85 6.79s10.85-7.81 10.85-13.38zm38.05-97.73c0 35.89-73.63 62.48-156.52 62.48-44.64 0-90.26-8.72-115.33-20.3v202.07c-11.27-9.34-41.02-29.49-41.02-64.82V400.74c0-37.95 78.61-62.51 156.42-62.51 81.87 0 156.45 26.49 156.45 62.5ZM567.78 658.65v-45.62c0-21.69-17.94-36.28-36.17-36.28v-3.28c19.64 0 36.16-16.01 36.16-36.11v-39.61c0-6.3 1.91-12.45 2.48-13.68-19.09 1.04-33.51 1.07-51.66-.06-.43 1.55-1.48 5.68-1.48 10.18v50.84c0 13.3-12.09 21.65-22.76 21.65v-85.19c-8.74-1.1-22.6-2.51-44.97-8.44v186.27c8.48 3.79 20.6 9.81 44.97 15.1v-93.86c11.31 0 22.77 8.78 22.77 21.64V659c0 6.17 2.7 14.17 6.62 19.62 11.51 1.02 29.1 1.69 50.19-.71-2.32-3.32-6.16-11.14-6.16-19.26Zm37.42-271.03H475.01c-6.42 0-11.62 5.2-11.62 11.62s5.2 11.62 11.62 11.62H605.2c6.42 0 11.62-5.2 11.62-11.62s-5.2-11.62-11.62-11.62"/>
    </g>
</svg>
